<svg width="353" height="353" xmlns="http://www.w3.org/2000/svg" xmlns:xlink="http://www.w3.org/1999/xlink" overflow="hidden"><defs><clipPath id="clip0"><rect x="416" y="193" width="353" height="353"></rect></clipPath></defs><g clip-path="url(#clip0)" transform="translate(-416 -193)"><path d="M416 369C416 271.798 494.798 193 592 193 689.202 193 768 271.798 768 369 768 466.202 689.202 545 592 545 494.798 545 416 466.202 416 369Z" fill="#5865F2" fill-rule="evenodd"></path><path d="M671.287 297.462C656.591 290.691 640.88 285.779 624.454 282.991 622.437 286.576 620.079 291.408 618.455 295.232 600.994 292.656 583.694 292.656 566.552 295.232 564.929 291.408 562.518 286.576 560.482 282.991 544.04 285.779 528.309 290.718 513.615 297.516 483.976 341.595 475.944 384.613 479.96 426.994 499.618 441.466 518.668 450.228 537.397 455.991 542.02 449.724 546.145 443.059 549.699 436.022 542.931 433.499 536.452 430.366 530.326 426.755 531.953 425.56 533.539 424.338 535.076 423.064 572.427 440.244 613.011 440.244 649.916 423.064 651.468 424.338 653.058 425.56 654.663 426.755 648.522 430.393 642.023 433.526 635.256 436.049 638.81 443.059 642.916 449.724 647.558 455.991 666.305 450.255 685.374 441.466 705.032 426.994 709.745 377.868 696.979 335.249 671.287 297.462ZM554.787 400.944C543.576 400.944 534.379 390.615 534.379 378.081 534.379 365.521 543.377 355.191 554.787 355.191 566.196 355.191 575.39 365.494 575.195 378.081 575.213 390.615 566.196 400.944 554.787 400.944ZM630.202 400.944C618.991 400.944 609.797 390.615 609.797 378.081 609.797 365.521 618.796 355.191 630.202 355.191 641.612 355.191 650.808 365.494 650.61 378.081 650.61 390.615 641.612 400.944 630.202 400.944Z" fill="#FFFFFF" fill-rule="evenodd"></path></g></svg>